<?xml version="1.0" encoding="iso-8859-1"?>
<!-- Uploaded to: SVG Repo, www.svgrepo.com, Generator: SVG Repo Mixer Tools -->
<svg version="1.1" id="Layer_1" xmlns="http://www.w3.org/2000/svg" xmlns:xlink="http://www.w3.org/1999/xlink" 
	 viewBox="0 0 512 512" xml:space="preserve">
<polygon style="fill:#FFAD61;" points="10.199,283.237 501.801,283.237 445.379,38.765 66.621,38.765 "/>
<g>
	<polygon style="fill:#FFE6B8;" points="350.745,14.849 161.255,14.849 161.255,280.58 305.342,280.58 350.745,235.176 	"/>
	<polygon style="fill:#FFE6B8;" points="380.117,73.31 131.883,73.31 131.883,421.418 320.638,421.418 380.117,361.938 	"/>
	<polygon style="fill:#FFE6B8;" points="101.09,444.004 410.91,444.004 410.91,131.771 175.325,131.771 101.09,206.007 	"/>
</g>
<polygon style="fill:#FFAD61;" points="101.09,206.007 175.325,131.771 175.391,206.071 "/>
<rect x="10.199" y="283.232" style="fill:#D35B38;" width="491.602" height="213.918"/>
<circle style="fill:#BCC987;" cx="256" cy="392.19" r="38.652"/>
<g>
	<path style="fill:#4D3D36;" d="M512,283.237c0-0.765-0.086-1.534-0.26-2.294L455.318,36.471c-1.069-4.627-5.189-7.905-9.938-7.905
		h-84.433V14.85c0-5.632-4.567-10.199-10.199-10.199H161.253c-5.632,0-10.199,4.567-10.199,10.199v13.716H66.621
		c-4.749,0-8.869,3.278-9.938,7.905L0.261,280.943C0.086,281.703,0,282.472,0,283.237l0,0V497.15
		c0,5.632,4.567,10.199,10.199,10.199h491.602c5.632,0,10.199-4.567,10.199-10.199V283.237L512,283.237z M369.918,83.509v38.062
		H175.325c-2.705,0-5.298,1.075-7.212,2.987l-26.031,26.031V83.509H369.918z M165.146,156.375l0.037,39.487l-39.487-0.037
		L165.146,156.375z M111.29,216.211l64.092,0.059c0.003,0,0.006,0,0.009,0c2.705,0,5.298-1.075,7.212-2.987
		c1.914-1.915,2.99-4.513,2.987-7.221l-0.059-64.092h215.18v131.068H111.29V216.211z M437.265,48.964l51.715,224.073h-67.872
		V131.771c0-5.632-4.567-10.199-10.199-10.199h-20.592V73.31c0-5.632-4.567-10.199-10.199-10.199h-19.172V48.964H437.265z
		 M340.547,25.049v38.061H171.453V25.049H340.547z M74.735,48.964h76.32v14.146h-19.172c-5.632,0-10.199,4.567-10.199,10.199v97.679
		l-27.805,27.805c-1.912,1.913-2.987,4.507-2.987,7.212v67.032H23.02L74.735,48.964z M491.602,486.951H20.398V293.436h471.203
		V486.951z"/>
	<path style="fill:#4D3D36;" d="M256,441.039c26.937,0,48.851-21.914,48.851-48.851c0-26.937-21.914-48.852-48.851-48.852
		s-48.851,21.914-48.851,48.851S229.063,441.039,256,441.039z M256,363.734c15.689,0,28.453,12.764,28.453,28.453
		S271.689,420.641,256,420.641c-15.689,0-28.453-12.764-28.453-28.453C227.547,376.5,240.311,363.734,256,363.734z"/>
	<path style="fill:#4D3D36;" d="M355.442,235.602h-3.57c-5.632,0-10.199,4.567-10.199,10.199S346.241,256,351.873,256h3.57
		c5.632,0,10.199-4.567,10.199-10.199S361.074,235.602,355.442,235.602z"/>
	<path style="fill:#4D3D36;" d="M317.195,235.602H156.558c-5.632,0-10.199,4.567-10.199,10.199S150.926,256,156.558,256h160.637
		c5.632,0,10.199-4.567,10.199-10.199S322.827,235.602,317.195,235.602z"/>
</g>
</svg>